# xmcd
#
# Track frame offsets: 
#        150
#        19382
#        35970
#        51355
#        69485
#        90392
#        105932
#        120890
#        144457
#        156647
#
# Disc length: 2324 seconds
#
# Revision: 9
# Processed by: cddbd v1.5.2PL0 Copyright (c) Steve Scherf et al.
# Submitted via: ExactAudioCopyFreeDBPlugin 1.0
#
DISCID=8509120a
DTITLE=Various Artist - A Soulful Christmas [LaserLight Digital]
DYEAR=1994
DGENRE=Holiday
TTITLE0=Little Anthony - The Christmas Song (with The Imperials)
TTITLE1=The Platters - White Christmas
TTITLE2=The Impressions - O Christmas Tree
TTITLE3=The Miracles - Have Yourself a Merry Little Christmas
TTITLE4=The Platters - What Made the Baby Cry (ft Franchesca Robi)
TTITLE5=The Impressions - Silent Night
TTITLE6=The Miracles - Away In a Manger
TTITLE7=Martha Reeves - O Holy Night (ft Members of the Life Choir)
TTITLE8=Little Anthony - Winter Wonderland (with The Imperials)
TTITLE9=Martha Reeves - Silver Bells (ft Members of the Life Choir)
EXTD=LABEL =Delta Music Inc.\nID =12248\nUPC =018111-224826\nCOPYRI
EXTD=GHT =1994
EXTT0=
EXTT1=
EXTT2=
EXTT3=
EXTT4=featuring Franchesca Robi
EXTT5=
EXTT6=
EXTT7=
EXTT8=
EXTT9=
PLAYORDER=
